# xmcd CD database file
#
# Track frame offsets:
#	150
#	16327
#	31465
#	45427
#	60992
#	77315
#
# Disc length: 1236 seconds
#
# Revision: 0
# Processed by: cddbd v1.5.1PL2 Copyright (c) Steve Scherf et al.
# Submitted via: CDex 1.60beta1
#
DISCID=3504d206
DTITLE=Various Artist - Dockers Fall Sampler
DYEAR=1999
DGENRE=Jazz
TTITLE0=Lisa Ekdahl - Now or Never
TTITLE1=Lisa Ekdahl - I Get a Kick Out of You
TTITLE2=John Pizzarelli - The Late Late Show
TTITLE3=John Pizzarelli - I Was a Little Too Lonely
TTITLE4=8 1/2 Souvenirs - Sharp Dressed Man
TTITLE5=8 1/2 Souvenirs - Yes, Yes, Yes
EXTD=YEAR: 1999
EXTT0=
EXTT1=
EXTT2=
EXTT3=
EXTT4=
EXTT5=
PLAYORDER=
